<?xml version="1.0" encoding="UTF-8"?>
<svg id="_レイヤー_1" data-name="レイヤー 1" xmlns="http://www.w3.org/2000/svg" width="160" height="160" viewBox="0 0 160 160">
  <defs>
    <style>
      .cls-1 {
        fill: #3e3a39;
      }

      .cls-2, .cls-3 {
        fill: #fff;
      }

      .cls-3 {
        font-family: ChunkFivePrint, 'ChunkFive Print';
        font-size: 29px;
      }
    </style>
  </defs>
  <g>
    <g>
      <path class="cls-1" d="M81.85,150.7c-40.79,0-73.97-33.18-73.97-73.97S41.06,2.76,81.85,2.76s73.97,33.18,73.97,73.97-33.18,73.97-73.97,73.97Z"/>
      <path class="cls-2" d="M81.85,3.76c40.24,0,72.97,32.74,72.97,72.97s-32.74,72.97-72.97,72.97S8.88,116.97,8.88,76.73,41.61,3.76,81.85,3.76M81.85,1.76C40.44,1.76,6.88,35.32,6.88,76.73s33.57,74.97,74.97,74.97,74.97-33.57,74.97-74.97S123.25,1.76,81.85,1.76h0Z"/>
    </g>
    <g>
      <path class="cls-1" d="M81.85,141.86c-35.91,0-65.13-29.22-65.13-65.13S45.94,11.6,81.85,11.6s65.13,29.22,65.13,65.13-29.22,65.13-65.13,65.13Z"/>
      <path class="cls-2" d="M81.85,12.6c35.36,0,64.13,28.77,64.13,64.13s-28.77,64.13-64.13,64.13S17.72,112.09,17.72,76.73,46.49,12.6,81.85,12.6M81.85,10.6C45.33,10.6,15.72,40.21,15.72,76.73s29.61,66.13,66.13,66.13,66.13-29.61,66.13-66.13S118.37,10.6,81.85,10.6h0Z"/>
    </g>
  </g>
  <text class="cls-3" transform="translate(39.84 85.86)"><tspan x="0" y="0">Brake</tspan></text>
</svg>