<?xml version="1.0" encoding="UTF-8"?>
<svg id="_レイヤー_1" data-name="レイヤー 1" xmlns="http://www.w3.org/2000/svg" width="185" height="185" viewBox="0 0 185 185">
  <defs>
    <style>
      .cls-1 {
        fill: #3e3a39;
      }

      .cls-2 {
        font-family: ChunkFivePrint, 'ChunkFive Print';
      }

      .cls-2, .cls-3 {
        fill: #fff;
      }

      .cls-4 {
        font-size: 42px;
        letter-spacing: .04em;
      }

      .cls-5 {
        font-size: 29px;
      }
    </style>
  </defs>
  <g>
    <g>
      <path class="cls-1" d="M92.5,180.91c-48.75,0-88.41-39.66-88.41-88.41S43.75,4.09,92.5,4.09s88.41,39.66,88.41,88.41-39.66,88.41-88.41,88.41Z"/>
      <path class="cls-3" d="M92.5,5.09c48.2,0,87.41,39.21,87.41,87.41s-39.21,87.41-87.41,87.41S5.09,140.7,5.09,92.5,44.3,5.09,92.5,5.09M92.5,3.09C43.12,3.09,3.09,43.12,3.09,92.5s40.03,89.41,89.41,89.41,89.41-40.03,89.41-89.41S141.88,3.09,92.5,3.09h0Z"/>
    </g>
    <g>
      <path class="cls-1" d="M92.5,170.36c-42.93,0-77.86-34.93-77.86-77.86S49.57,14.63,92.5,14.63s77.87,34.93,77.87,77.87-34.93,77.86-77.87,77.86Z"/>
      <path class="cls-3" d="M92.5,15.63c42.38,0,76.87,34.48,76.87,76.87s-34.48,76.87-76.87,76.87S15.63,134.88,15.63,92.5,50.12,15.63,92.5,15.63M92.5,13.63C48.94,13.63,13.63,48.94,13.63,92.5s35.31,78.87,78.87,78.87,78.87-35.31,78.87-78.87S136.06,13.63,92.5,13.63h0Z"/>
    </g>
  </g>
  <text class="cls-2" transform="translate(51.05 90.68)"><tspan class="cls-4"><tspan x="0" y="0">Gas</tspan></tspan><tspan class="cls-5"><tspan x="1.61" y="30.96">Pedal</tspan></tspan></text>
</svg>