<?xml version="1.0" encoding="UTF-8"?>
<svg id="_レイヤー_1" data-name="レイヤー 1" xmlns="http://www.w3.org/2000/svg" width="160" height="160" viewBox="0 0 160 160">
  <defs>
    <style>
      .cls-1 {
        fill: #3e3a39;
      }

      .cls-2 {
        fill: #882e34;
      }

      .cls-3, .cls-4 {
        fill: #fff;
      }

      .cls-4 {
        font-family: ChunkFivePrint, 'ChunkFive Print';
        font-size: 42px;
        letter-spacing: 0em;
      }
    </style>
  </defs>
  <g>
    <g>
      <path class="cls-1" d="M80,153.97c-40.79,0-73.97-33.18-73.97-73.97S39.21,6.03,80,6.03s73.97,33.18,73.97,73.97-33.18,73.97-73.97,73.97Z"/>
      <path class="cls-3" d="M80,7.03c40.24,0,72.97,32.74,72.97,72.97s-32.74,72.97-72.97,72.97S7.03,120.24,7.03,80,39.76,7.03,80,7.03M80,5.03C38.59,5.03,5.03,38.59,5.03,80s33.57,74.97,74.97,74.97,74.97-33.57,74.97-74.97S121.41,5.03,80,5.03h0Z"/>
    </g>
    <g>
      <path class="cls-2" d="M80,145.13c-35.91,0-65.13-29.22-65.13-65.13S44.09,14.87,80,14.87s65.13,29.22,65.13,65.13-29.22,65.13-65.13,65.13Z"/>
      <path class="cls-3" d="M80,15.87c35.36,0,64.13,28.77,64.13,64.13s-28.77,64.13-64.13,64.13S15.87,115.36,15.87,80,44.64,15.87,80,15.87M80,13.87C43.48,13.87,13.87,43.48,13.87,80s29.61,66.13,66.13,66.13,66.13-29.61,66.13-66.13S116.52,13.87,80,13.87h0Z"/>
    </g>
  </g>
  <text class="cls-4" transform="translate(28.47 92.23)"><tspan x="0" y="0">Nitro</tspan></text>
</svg>