<?xml version="1.0" encoding="UTF-8"?>
<svg id="_レイヤー_1" data-name="レイヤー 1" xmlns="http://www.w3.org/2000/svg" width="180" height="180" viewBox="0 0 180 180">
  <defs>
    <style>
      .cls-1 {
        fill: #fff;
      }
    </style>
  </defs>
  <path d="M90,162.84c-40.17,0-72.84-32.68-72.84-72.84S49.83,17.16,90,17.16s72.84,32.68,72.84,72.84-32.68,72.84-72.84,72.84Z"/>
  <path class="cls-1" d="M90,18.16c39.61,0,71.84,32.23,71.84,71.84s-32.23,71.84-71.84,71.84S18.16,129.61,18.16,90,50.39,18.16,90,18.16M90,16.16c-40.78,0-73.84,33.06-73.84,73.84s33.06,73.84,73.84,73.84,73.84-33.06,73.84-73.84S130.78,16.16,90,16.16h0Z"/>
</svg>