<?xml version="1.0" encoding="UTF-8"?>
<svg id="_レイヤー_1" data-name="レイヤー 1" xmlns="http://www.w3.org/2000/svg" width="400" height="160" viewBox="0 0 400 160">
  <defs>
    <style>
      .cls-1 {
        fill: #3e3a39;
      }

      .cls-2 {
        fill: #fff;
      }
    </style>
  </defs>
  <g>
    <path class="cls-1" d="M108.91,144.59c-35.62,0-64.59-28.98-64.59-64.59S73.3,15.41,108.91,15.41h182.17c35.62,0,64.59,28.98,64.59,64.59s-28.98,64.59-64.59,64.59H108.91Z"/>
    <path class="cls-2" d="M291.09,16.41c35.06,0,63.59,28.53,63.59,63.59s-28.53,63.59-63.59,63.59H108.91c-35.06,0-63.59-28.53-63.59-63.59s28.53-63.59,63.59-63.59h182.17M291.09,14.41H108.91c-36.23,0-65.59,29.37-65.59,65.59h0c0,36.23,29.37,65.59,65.59,65.59h182.17c36.23,0,65.59-29.37,65.59-65.59h0c0-36.23-29.37-65.59-65.59-65.59h0Z"/>
  </g>
  <g>
    <path class="cls-1" d="M110.3,136.53c-31.17,0-56.53-25.36-56.53-56.53s25.36-56.53,56.53-56.53h179.45c31.17,0,56.53,25.36,56.53,56.53s-25.36,56.53-56.53,56.53H110.3Z"/>
    <path class="cls-2" d="M289.75,24.47c30.62,0,55.53,24.91,55.53,55.53s-24.91,55.53-55.53,55.53H110.3c-30.62,0-55.53-24.91-55.53-55.53s24.91-55.53,55.53-55.53h179.45M289.75,22.47H110.3c-31.77,0-57.53,25.76-57.53,57.53h0c0,31.77,25.76,57.53,57.53,57.53h179.45c31.77,0,57.53-25.76,57.53-57.53h0c0-31.77-25.76-57.53-57.53-57.53h0Z"/>
  </g>
  <polygon class="cls-2" points="309.26 94.26 323.52 80 309.26 65.74 309.26 94.26"/>
  <polygon class="cls-2" points="89.37 94.26 75.11 80 89.37 65.74 89.37 94.26"/>
</svg>